<svg xmlns="http://www.w3.org/2000/svg" xml:space="preserve" viewBox="0 0 500 500"><rect width="500" height="500" x="-250" y="-250" fill="#fff" rx="0" ry="0" transform="translate(250 250)" vector-effect="non-scaling-stroke"/><g><path d="M97.909 372.046c-39.062 0-58.149-28.059-58.149-59.104v-31.045h37.765v27.636c0 15.297 6.795 23.383 20.384 23.383 13.998 0 20.792-8.086 20.792-21.692V255.95c0-8.93-4.243-15.311-16.126-15.311H83.037v-33.58h19.538c11.883 0 16.126-6.381 16.126-15.734V139.87c0-13.607-6.794-22.1-20.792-22.1-13.59 0-20.384 8.507-20.384 23.381v28.06H39.76v-31.046c0-31.453 18.678-59.526 58.149-59.526 37.765 0 61.969 24.664 61.969 60.386v43.792c0 20.41-10.615 35.299-28.025 39.976 16.987 5.944 28.025 18.705 28.025 39.538v49.314c0 35.736-24.204 60.4-61.97 60.4ZM247.729 372.046c-38.188 0-61.955-26.355-61.955-64.203v-164.14c0-38.694 24.161-65.063 62.8-65.063 38.202 0 58.586 29.34 58.586 59.526v28.482h-36.947v-25.496c0-14.888-7.627-23.382-22.076-23.382-13.998 0-21.215 8.916-21.215 23.382v71.866c7.64-9.776 20.384-17.86 39.062-17.86 27.996 0 43.714 19.142 43.714 45.496v67.19c0 37.847-23.345 64.202-61.97 64.202Zm21.215-125.011c0-11.48-6.343-19.551-20.807-19.551-13.575 0-21.215 8.508-21.215 19.551v64.64c0 12.338 8.049 21.269 20.792 21.269 13.153 0 21.216-8.508 21.216-19.988v-65.921h.014ZM397.548 372.046c-38.203 0-61.969-26.355-61.969-64.203v-164.14c0-38.694 24.19-65.063 62.816-65.063 38.2 0 58.57 29.34 58.57 59.526v28.482h-36.933v-25.496c0-14.888-7.64-23.382-22.06-23.382-14 0-21.232 8.916-21.232 23.382v71.866c7.64-9.776 20.37-17.86 39.05-17.86 28.022 0 43.713 19.142 43.713 45.496v67.19c.014 37.847-23.317 64.202-61.955 64.202Zm21.229-125.011c0-11.48-6.385-19.551-20.805-19.551-13.577 0-21.232 8.508-21.232 19.551v64.64c0 12.338 8.064 21.269 20.794 21.269 13.153 0 21.228-8.508 21.228-19.988v-65.921h.015ZM96.896 412.544h-3.313l-1.113 8.168h-4.934l1.114-8.168h-3.482l-1.114 8.168H79.12l1.114-8.168h-3.186v-4.507h3.82l.649-4.735H78.33v-4.521h3.82l1.114-8.041h4.934l-1.114 8.04h3.482l1.113-8.04h4.92l-1.113 8.04h2.664v4.522h-3.299l-.648 4.735h2.664v4.507h.028Zm-10.431-9.242-.649 4.735h3.482l.649-4.735h-3.482ZM124.229 400.978c-.423-3.099-2.82-4.732-6.174-4.732-5.132 0-7.12 4.55-7.12 9.113 0 4.55 1.988 9.115 7.12 9.115 3.721 0 5.892-2.157 6.174-5.677h7.993c-.423 7.915-6.231 12.563-13.998 12.563-9.276 0-15.295-7.1-15.295-16.001 0-8.902 6.019-16.002 15.295-16.002 6.61 0 13.772 4.214 13.998 11.621h-7.993ZM150.435 389.357c9.656 0 15.111 7.1 15.111 16.002s-5.44 16.001-15.111 16.001c-9.67 0-15.112-7.1-15.112-16.001 0-8.902 5.456-16.002 15.112-16.002Zm0 25.131c5.16 0 7.118-4.564 7.118-9.115 0-4.565-1.973-9.112-7.118-9.112-5.16 0-7.12 4.547-7.12 9.112 0 4.55 1.975 9.115 7.12 9.115ZM169.934 390.005h11.756l5.287 20.469h.084l5.286-20.469h11.757v30.707h-7.514v-23.31h-.084l-6.428 23.31h-6.104l-6.442-23.31h-.085v23.31h-7.513v-30.707ZM209.697 390.005h11.756l5.287 20.469h.084l5.272-20.469h11.771v30.707h-7.513v-23.31h-.085l-6.442 23.31h-6.09l-6.456-23.31h-.085v23.31h-7.499v-30.707ZM275.895 408.037c0 8.902-4.088 13.323-13.35 13.323-9.261 0-13.35-4.42-13.35-13.323v-18.032h7.98v18.496c0 3.957 1.465 5.987 5.37 5.987 3.905 0 5.357-2.03 5.357-5.987v-18.496h7.993v18.032ZM281.14 390.005h8.19l10.657 18.934h.099v-18.934h7.5v30.707h-8.19l-10.658-19.126h-.084v19.126h-7.514v-30.707ZM313.04 390.005h7.992v30.707h-7.993v-30.707ZM350.86 396.894h-9.135v23.818h-7.992v-23.818H324.6v-6.889h26.261v6.89ZM354.4 390.005h7.992v30.707H354.4v-30.707ZM367.933 390.005h24.417v6.411H375.9v5.38h15.024v6.198H375.9v5.846h16.874v6.872h-24.84v-30.707ZM403.556 410.402c.184 3.605 2.396 4.775 5.794 4.775 2.411 0 4.905-.859 4.905-3.14 0-2.718-4.383-3.228-8.81-4.48-4.369-1.254-8.965-3.226-8.965-8.86 0-6.704 6.739-9.34 12.49-9.34 6.089 0 12.234 2.973 12.278 9.89h-7.992c.126-2.805-2.483-3.706-4.934-3.706-1.722 0-3.862.607-3.862 2.62 0 2.368 4.412 2.803 8.894 4.044 4.412 1.253 8.867 3.31 8.867 8.859 0 7.79-6.612 10.282-13.349 10.282-7.036 0-13.25-3.1-13.308-10.973h7.992v.029Z" vector-effect="non-scaling-stroke"/></g></svg>