<svg xmlns="http://www.w3.org/2000/svg" viewBox="0 0 500 500"><rect x="0" y="0" width="500" height="500" fill="#fff" /><path d="M465.8 344.4c-4.6 11.9-17.3 18-28.3 13.7-11-4.3-16.1-17.4-11.5-29.3 4.7-11.8 17.3-18 28.3-13.7 11 4.3 16.2 17.4 11.5 29.3ZM176.2 70A304.4 304.4 0 0 0 55.4 213c-12 28.2-25.7 75.5-9 107.7A79 79 0 0 0 98.6 361c25.1 6.2 57.7.6 80.5-7 38.2-13 73-37 97.6-64.5l6.5-7c.2-.1-3 29.4 1 44.7 5 18.7 20.2 29 37.8 31.7a74.6 74.6 0 0 0 54.9-13c38.6-27.1 52.4-74.6 52.4-74.6s-16 18.3-34.8 31.2c-15 10.2-79.3 50.1-58.8-40.2 8.5-37.2 7.6-35.8 15.6-74.6 4.4-21-7.8-27.5-27.4-6.4a678.6 678.6 0 0 1-62.4 56.5c-30 22.5-55 40.2-93.5 54.2a119 119 0 0 1-30.2 7c-11.7.8-50.9 4.3-33.7-53.8 4.5-15.4 9.1-29.4 14.6-40.8 24.4-50.8 56-90 99.2-121.3 21.2-15.4 45-30.8 79.5-29.7 4 .7-1.3 5 0 6 5.7-1.5 12-2.2 12.6-8 1-11.3-18.3-13.2-30.2-14.2h-4c-41.5 1-72.6 15.8-99.7 32.8Z" fill="#ec6608" fill-rule="evenodd"/><path d="M75.7 443.9h-23l-7.6 17.4-6.6-1.7v-.6L64 403.5h1.4L90 459v.7l-6.9 1.5-7.5-17.4Zm-2.7-6.6a641 641 0 0 1-8-19l-.5-1.5-2.2 5.2a467 467 0 0 1-6.7 15.3H73ZM99.7 405a129 129 0 0 1 22.8-.2 33 33 0 0 1 15.1 5.7 26.3 26.3 0 0 1 9.5 12.8 29.2 29.2 0 0 1-1.1 20.3 27.6 27.6 0 0 1-16.4 15.1c-3.7 1.4-7.6 2-11.8 2h-18V405Zm41.4 27c0-4.3-1-8-3.2-11.4a19.9 19.9 0 0 0-9.5-7.5 28 28 0 0 0-6.6-1.7 53 53 0 0 0-15.2 0v42.8H118c3.6 0 6.8-.5 9.6-1.7a20.6 20.6 0 0 0 12-11.7c1-2.7 1.6-5.7 1.6-8.8Zm19.9-28 18 43.2 18.8-43.3 6.9 2-25.2 56.2h-1.6L154 406l7.1-2Zm81.6 7.3h-20.9v17.3h19.8v6.7h-19.8v18.8h21.9v6.7h-28.8v-56.1h27.8v6.7Zm15.4 49.5v-55.9a77.9 77.9 0 0 1 19 0c1.7.5 3.3 1 4.6 1.7a15 15 0 0 1 7.1 6.8 15.4 15.4 0 0 1 1.8 6.4c0 3.8-.8 7.1-2.5 10a22.1 22.1 0 0 1-7.2 7.3l19.6 20.7v.6l-6 3.7-21-23H265v21.7h-7Zm13.4-50a139.4 139.4 0 0 0-6.5.2v21.8h5.7c3.3 0 6-.7 8-2 1.5-1.2 2.7-2.6 3.5-4.3a12.2 12.2 0 0 0 .2-9.7 9.5 9.5 0 0 0-2.5-3.3 11 11 0 0 0-3.8-2 15 15 0 0 0-4.6-.8Zm45.1-6.1V454H339v6.7h-29.4v-56.1h6.9Zm39.8 0v56h-7v-56h7Zm66.3 0v57.2h-1.3l-41.2-42.7v41.6h-6.7v-57.4h1.5l41.2 42.7v-41.4h6.5Zm45 6.6h-20.9v17.3h19.8v6.7h-19.8v18.8h21.8v6.7h-28.7v-56.1h27.8v6.7Z" fill="#13100d"/></svg>