<svg xmlns="http://www.w3.org/2000/svg" viewBox="0 0 500 500"><rect x="0" y="0" width="500" height="500" fill="#fff" /><path d="M307.39 276.63a5.97 5.97 0 0 1-5.86-5.86V239.2c0-3.16 2.71-5.86 5.86-5.86s5.86 2.71 5.86 5.86v31.57a5.97 5.97 0 0 1-5.86 5.86Zm.22-47.8c-3.16 0-5.86-2.71-5.86-5.86s2.71-5.86 5.86-5.86 5.86 2.71 5.86 5.86-2.48 5.86-5.86 5.86Zm30.89 47.8a5.52 5.52 0 0 1-5.19-3.16l-16.23-31.79a6.13 6.13 0 0 1 2.48-7.89 6 6 0 0 1 2.71-.68 5.52 5.52 0 0 1 5.19 3.16l10.82 21.42 16.91-34.05a5.5 5.5 0 0 1 5.19-3.16c.9 0 1.8.23 2.48.68 2.93 1.35 4.06 4.96 2.71 7.89l-21.87 44.42a5.9 5.9 0 0 1-5.19 3.16Zm-83.43 0a5.97 5.97 0 0 1-5.86-5.86V239.2c0-3.16 2.71-5.86 5.86-5.86s5.86 2.71 5.86 5.86v31.57a5.97 5.97 0 0 1-5.86 5.86Zm.45-47.8c-3.16 0-5.86-2.71-5.86-5.86s2.71-5.86 5.86-5.86 5.86 2.71 5.86 5.86-2.71 5.86-5.86 5.86Zm-136.19 36.08H96.78V226.8c0-3.16-2.71-5.86-5.86-5.86s-5.86 2.71-5.86 5.86v43.97a5.82 5.82 0 0 0 5.86 5.86h28.41a5.82 5.82 0 0 0 5.86-5.86c-.23-3.38-2.71-5.86-5.86-5.86Zm172.95 0h-14.21V226.8c0-3.16-2.71-5.86-5.86-5.86s-5.86 2.71-5.86 5.86v43.97a5.82 5.82 0 0 0 5.86 5.86h20.07c3.16 0 5.86-2.48 5.86-5.86s-2.71-5.86-5.86-5.86ZM74.46 245.29H46.73v-12.63h27.96a5.82 5.82 0 0 0 5.86-5.86 5.82 5.82 0 0 0-5.86-5.86H40.87a5.71 5.71 0 0 0-5.19 3.38s0 .23-.23.23a7.89 7.89 0 0 0-.45 2.25v43.52c0 3.16 2.71 5.86 5.86 5.86s5.86-2.71 5.86-5.86v-13.3h27.96a5.82 5.82 0 0 0 5.86-5.86 6.17 6.17 0 0 0-6.09-5.86Zm150.4 3.61 17.81-17.81c1.13-1.13 1.8-2.48 1.8-4.06s-.68-2.93-1.8-4.06-2.48-1.8-4.06-1.8-2.93.68-4.06 1.8l-17.81 17.81-17.81-17.81c-1.13-1.13-2.48-1.8-4.06-1.8s-2.93.68-4.06 1.8-1.8 2.48-1.8 4.06.68 2.93 1.8 4.06l17.81 17.81-18.04 17.81c-1.13 1.13-1.8 2.48-1.8 4.06s.68 2.93 1.8 4.06 2.48 1.8 4.06 1.8 2.93-.68 4.06-1.8l17.81-17.81 17.81 17.81c1.13 1.13 2.48 1.8 4.06 1.8s2.93-.68 4.06-1.8 1.8-2.48 1.8-4.06-.68-2.93-1.8-4.06l-17.59-17.81Zm133.49 27.73c-.9 0-1.8-.23-2.71-.68a5.67 5.67 0 0 1-2.48-7.89l22.1-43.97a5.5 5.5 0 0 1 5.19-3.16h15.78c9.7 0 18.04 8.57 18.04 18.72 0 5.86-2.71 10.82-7.44 14.66a16.16 16.16 0 0 1-4.74 2.71l-1.58.68 11.5 8.12c1.35.9 2.03 2.25 2.25 3.83s0 3.16-1.13 4.28a5.88 5.88 0 0 1-4.74 2.48 6.03 6.03 0 0 1-3.38-1.13l-23-16.23c-2.03-1.58-2.93-4.06-2.25-6.54s2.93-4.06 5.64-4.06c6.31 0 11.27-1.13 14.21-3.38 1.8-1.35 2.93-3.16 2.93-5.19 0-3.38-2.71-7.22-6.31-7.22h-12.18l-20.52 40.81c-1.13 1.8-3.16 3.16-5.19 3.16Zm74.41-22.09h26.38c3.16 0 5.86-2.71 5.86-5.86s-2.71-5.86-5.86-5.86h-26.38c-2.48 0-3.16-3.16-3.16-5.19 0-1.58.45-3.16 1.13-4.06a2.36 2.36 0 0 1 2.03-1.13h26.38c3.16 0 5.86-2.71 5.86-5.86s-2.71-5.86-5.86-5.86h-26.38c-4.74 0-8.79 2.03-11.5 5.86-2.25 2.93-3.38 6.99-3.38 11.05 0 4.28 1.35 8.12 3.38 11.05-2.25 2.93-3.38 6.99-3.38 11.05 0 9.7 6.31 16.91 14.88 16.91h26.38c3.16 0 5.86-2.71 5.86-5.86s-2.71-5.86-5.86-5.86h-26.38c-2.48 0-3.16-3.16-3.16-5.19 0-1.58.45-3.16 1.13-4.06a2.36 2.36 0 0 1 2.03-1.13Z" fill="#73b4c9"/><path d="m177.28 263.33-20.52 10.6c-6.09-1.58-23.45-5.86-28.19-6.99-.45-.23-1.58-1.13-2.03-3.38a7.83 7.83 0 0 1 1.35-5.86c8.12 2.03 27.06 6.54 27.96 6.76.45 0 .9.23 1.35.23.9 0 1.8-.23 2.71-.68l22.55-11.73a5.73 5.73 0 0 0 2.48-7.89 5.73 5.73 0 0 0-7.89-2.48l-20.74 10.6c-6.09-1.58-23.45-5.64-27.96-6.99-2.25-.68-3.83-3.16-3.83-5.41a4.08 4.08 0 0 1 2.03-4.28l29.31 6.99c1.58.45 3.16.23 4.28-.68l22.55-13.3a5.95 5.95 0 0 0 2.71-6.09 6.04 6.04 0 0 0-4.74-4.74l-27.96-4.06c-.9-.23-1.58 0-2.48.23-.45.23-5.86 1.58-27.06 10.6a16.6 16.6 0 0 0-10.37 16.69 18.7 18.7 0 0 0 4.51 10.82 18.33 18.33 0 0 0-2.25 14.88c1.58 5.64 5.64 10.15 10.6 11.27 5.64 1.35 29.76 7.44 29.99 7.44.45.23.9.23 1.35.23.9 0 1.8-.23 2.71-.68l22.55-11.73a5.73 5.73 0 0 0 2.48-7.89c-.9-2.71-4.51-3.83-7.44-2.48Z" fill="#ea68a2"/></svg>