<svg xmlns="http://www.w3.org/2000/svg" viewBox="0 0 500 500"><rect x="0" y="0" width="500" height="500" fill="#fff" /><path d="M60.79 226.38v50.55c0 4.75 1.44 7.01 7.43 7.01h7.22c8.25 0 12.17-3.3 15.06-9.28l2.68-5.98 4.33 1.24-3.3 19.39H35v-4.33c10.52-2.27 10.93-2.68 10.93-6.81v-51.99c0-4.33-.62-4.54-10.93-6.6v-4.33h37.14v4.33c-10.73 2.06-11.35 2.27-11.35 6.81Zm83.35 22.28c0 7.01-3.92 14.65-29.71 15.89.62 10.52 6.19 17.54 15.06 17.54 4.95 0 9.49-2.06 13.62-5.98l2.48 2.89c-4.75 7.01-12.38 11.76-21.25 11.76-14.44 0-24.76-10.32-24.76-26.41s12.59-28.06 27.44-28.06c12.38-.41 17.12 7.01 17.12 12.38Zm-17.74-8.25c-8.05 0-11.55 8.67-11.97 19.81 17.74-2.68 18.36-9.28 18.36-13.2 0-4.54-3.51-6.6-6.4-6.6Zm40.02 50.13c-12.79 0-17.74-5.16-17.74-10.52 0-4.13 4.13-7.63 9.28-6.81l1.44 1.65c-3.3 5.78-.83 10.93 7.43 10.93 5.36 0 9.08-2.89 9.08-7.22 0-5.16-4.33-7.22-10.93-9.9-9.28-3.92-15.06-8.05-15.06-16.92s7.43-15.89 19.19-15.89 17.74 5.98 17.74 10.73c0 4.13-3.71 7.84-9.7 6.6l-1.24-1.86c3.92-5.16 1.86-11.14-6.6-11.14-4.95 0-8.25 3.09-8.25 7.22 0 4.95 5.36 7.22 11.14 9.28 9.28 3.3 16.92 7.43 16.92 17.12.21 10.11-6.6 16.71-22.69 16.71Zm34.05-75.3h59.42l.62 19.6h-4.13l-2.06-6.19c-2.06-6.19-6.4-7.84-12.59-7.84h-15.47v27.65h15.27c3.3 0 3.51-.62 5.78-10.11h4.33v26.61h-4.33c-2.27-9.08-2.48-10.52-5.78-10.52h-15.27v22.49c0 4.75 1.44 7.01 7.43 7.01h7.22c8.25 0 12.17-3.3 15.06-9.28l2.68-5.98 4.33 1.24-3.51 19.39h-59.01v-4.13c10.52-2.27 10.93-2.68 10.93-6.81v-52.2c0-4.33-.62-4.54-10.93-6.6v-4.33Zm108.72 60.86 2.48 2.89c-4.75 7.01-12.38 11.55-21.25 11.55-14.44 0-24.76-10.32-24.76-26.41s11.55-28.06 26.61-28.06c11.76 0 17.33 6.6 17.33 11.55 0 4.33-2.68 8.46-10.32 7.22l-1.24-2.06c2.06-4.95 2.89-12.59-5.57-12.59s-11.97 9.7-11.97 21.66 5.57 20.01 15.06 20.01c4.75 0 9.28-1.86 13.62-5.78Zm38.79 7.22v-28.68c0-6.19-2.27-8.67-6.6-8.67-6.81 0-12.38 10.52-12.38 26.2v16.92h-14.03v-69.12c0-4.13-.41-4.33-7.01-6.6v-4.13h21.66c-.62 4.54-.62 39.2-.62 41.47h.21c3.71-8.67 9.9-14.85 18.98-14.85 7.84 0 13.62 5.57 13.62 16.09v26c0 4.95.83 5.36 8.05 7.01v4.33c-6.4.62-11.35 1.03-14.44 1.03-4.75.21-7.43-2.06-7.43-7.01Zm47.66 2.68c9.28 0 11.76-10.93 11.76-22.08 0-12.17-1.65-23.52-11.76-23.52-9.28 0-11.76 10.93-11.76 22.08-.21 11.97 1.65 23.52 11.76 23.52Zm-1.24 4.54c-15.06 0-25.58-10.11-25.58-25.58 0-17.54 10.93-29.09 27.85-29.09 15.06 0 25.58 9.9 25.58 25.58 0 17.54-10.73 29.09-27.85 29.09Zm48.07 0c-12.79 0-17.74-5.16-17.74-10.52 0-4.13 4.13-7.63 9.28-6.81l1.44 1.65c-3.3 5.78-.83 10.93 7.43 10.93 5.36 0 9.08-2.89 9.08-7.22 0-5.16-4.33-7.22-10.93-9.9-9.28-3.92-15.06-8.05-15.06-16.92s7.43-15.89 18.98-15.89c12.17 0 17.74 5.98 17.74 10.73 0 4.13-3.71 7.84-9.7 6.6l-1.24-1.86c3.92-5.16 2.06-11.14-6.6-11.14-4.95 0-8.25 3.09-8.25 7.22 0 4.95 5.16 7.22 11.14 9.28 9.28 3.3 16.92 7.43 16.92 17.12.62 10.11-6.4 16.71-22.49 16.71Z"/></svg>