<svg xmlns="http://www.w3.org/2000/svg" viewBox="0 0 500 500"><rect x="0" y="0" width="500" height="500" fill="#fff" /><path d="m237.4 290.7 1.5 2M209.4 306l-.3-1.1m-3.2 2.9c-.2.5-.2 1 .1 1.7m-21.4-4.9c-.8-.6-1.9-.6-3.4 0M138.3 216l3.4-3.7" vector-effect="non-scaling-stroke" fill="none" stroke="#7b1614" stroke-width="2"/><path d="m237.4 290.7 1.5 2c-1.5 1.4-2.8 2-3.8 2a63.8 63.8 0 0 1-19.8-5.3c-1.3-.6-1.6-.3-1 1 .7 1.2 1.9 2.2 2 3.6.3 3.9-4.3 9.4-6.9 12l-.3-1.1c1.6-2 3-4 4.3-6.2 1.1-2 2.3-3.7 1.1-5.7-2-3.5-5.5-6-8.2-9.1-.5-.6-.4-.8.3-.7.6.1 1 .3 1.4.6 2 1.6 4 2.8 6 3.6 6.5 2.8 13.2 5 20.5 5.7.4 0 .7 0 1-.2.3-.2.5-.4.4-.8 0-.3-.2-.5-.5-.6-6.4-1.8-13.5-4.5-21-8.2l-28.3-13.5c-10.5-5-14.7.3-18.8 9.2a601.4 601.4 0 0 0-11.4 25.3L131.5 365c0 .2-.2.3-.4.2h-.1c-7.5-9.5-15.5-18.4-23-27.6a41550.6 41550.6 0 0 1-29.4-36.2c-5-5.6-12.7-5.3-19.1-1.6a10 10 0 0 0-4.2 4.9 32 32 0 0 0-2.7 9.1c-.4 3.7-.6 8-.7 13.1-.2 5.7 1.6 9.5 4.7 14 4.4 6.4 10.4 9 17.4 4.3 1.5-1 1.7-2.3.5-3.8l-9.2-11a1 1 0 0 0-1.1-.3l-2 .9h-.3l-.3-.1a.5.5 0 0 1 0-.7c1.6-1.8 3.3-3 5.4-.8A2397 2397 0 0 1 84.6 353c7 9.5 14.4 16.6 22.2 24.6 6 6 11.7 10.8 18.2 16 3.1 2.3 11.3 8.2 14.6 3.2 2.7-4.2 5.1-9 6.9-13.7 2.8-7.6 5.7-15.1 8.3-22.6 5.6-16.6 11.7-33.6 17-50.7a121 121 0 0 1 8.5-21c.3-.5.2-1.1 0-1.6a34.4 34.4 0 0 1-3.6-7V279c.3-.7.6-.6.8 0a26.5 26.5 0 0 0 14.1 16.3 1.1 1.1 0 0 1 .1 1.9 86.8 86.8 0 0 0-7.9 5.6c-.2.2-.3.4-.2.7 0 .3.4.5.7.4h.2a238.9 238.9 0 0 0 13.1-7.4c.5-.4.6-1 .1-1.4l-4.5-5a.4.4 0 0 1 0-.7l.1-.2h.3c2 1.4 3.9 3.2 5.6 5.6 1 1.2 1.9 1.3 3 .4.2-.2.3-.5.3-.8l-.2-2.6c0-.4-.2-.7-.4-1-1-1.2-2-2.5-2.8-3.9-.2-.4 0-.7.4-1 .3 0 .6 0 .8.2 2.8 2.5 5.5 4.8 8.3 6.7 1.5 1 2.5 2.8 1.5 4.7l-5.4 9.4c-.2.4-.1 1 .3 1.2h.4l.5-.2c-.2.4-.1 1 .2 1.7l-.4.3a1 1 0 0 1-1.5-.7c-.4-1.8-.2-3.3.5-4.7l3.7-7c1.4-2.8-2.3-5-4.2-6.2-.5-.4-.7-.2-.5.4.6 2.9.3 5.6-3.4 5.7-.3 0-.6 0-.8.2-5.6 3.3-9.4 5.8-14.8 7-.8-.6-2-.6-3.4 0 .3-.8.8-1.6 1.4-2 2.1-2.1 4.5-4 7-5.7a.6.6 0 0 0-.1-1 18.8 18.8 0 0 1-6.7-5.7.9.9 0 0 0-1.5.1c-6.7 13.2-10.5 28-15.5 42-3.9 11-7 22.7-10.7 33.6a224 224 0 0 1-12.5 29.5 9.6 9.6 0 0 1-3.5 4.2c-3.2 1.8-7.7 0-10.7-2-8.2-5.3-16-11.6-23-18.8-.8-1-1.3-.7-1.3.5 0 4 0 8 1.8 11.8 0 .1 0 .3-.2.4l-.3.1c-.5.2-.9 0-1-.5-.6-1.2-1-2.4-1-3.4a359.5 359.5 0 0 1-1.1-12 334.7 334.7 0 0 1-25-29.7c-.4-.6-1.3-.7-1.9-.3l-.2.2c-1 1-2 2-3.2 2.8-4.6 3.1-10.2.2-14-3a28 28 0 0 1-7.2-12.2c-2.7-7-.7-17.9 1.1-24.8 1.5-5.4 5.3-11.6 11-12.8 10.8-2.4 16.3 2.2 22.5 10.6 5.9 8 12.1 16.2 18.3 23.6l10.2 12.7 1.9 2c.2.1.6 0 .8-.2v-.3c.3-4 1.4-7.8 0-11.9a50.1 50.1 0 0 0-7-13.7l-7.7-9.8c-5-6-8.5-13.4-12-20.4a1 1 0 0 0-1-.6c-8.9-.7-17.8-1.5-26.8-2.5a341 341 0 0 0-20-1.4c-.2 0-.5.1-.7.4a19 19 0 0 0-1.6 4.3c-1.4 5-2.6 10-3.8 14.8-1 4-1.6 8.6-1.8 13.9a222 222 0 0 0-.1 23 210 210 0 0 0 7.8 44.4c.3 1.2.4 2.4.5 3.6l-.1.5c-.1.2-.3.3-.5.3-.3 0-.4-.1-.5-.4-3.1-13.4-6.5-27.7-8.8-41.8a71 71 0 0 1-.7-13.5c.3-8.3.8-16.5 1.5-24.7a163.6 163.6 0 0 1 9.3-32.7 643.3 643.3 0 0 0 14.4-36.6 103 103 0 0 0 5.4-25.2 488.5 488.5 0 0 0 1.2-18 602 602 0 0 1 3.9-46.7 55 55 0 0 1 5.2-18.2c.2-.6.4-1.1.4-1.7.4-6.1.7-11.9 2.7-17.9 1-3 2.2-5.9 3.6-8.5 2.9-5.4 6.2-8 12.6-8 .3 0 .6.2.8.3 2 1.7 3 3.8 2.9 6.4a27.6 27.6 0 0 1-6.6 17.6c-.2.3-.4.6-.4 1 0 1.2.6 2 1.8 1.6a70 70 0 0 1 18.9-1.4c5.3.4 11 3 16.3 4.7 2.3.7 5 1.9 8.2 3.5 4.8 2.4 9.4 4.9 14 7.4 3 1.6 5.6 3.7 7.7 6.1 4.5 5.3 9.1 12.6 8.7 19.4a66.3 66.3 0 0 1-4.3 21c-3 7.8-7 19.6-3.6 27.9 0 .2 0 .5-.2.6h-.2c-3-.4-5.7-1.2-8.2-2.7a.9.9 0 0 0-1 .2L135 223c-.3.3-.4.8-.4 1.2.3 3 3.3 6.7-1 8.4-2.6 1-6-1.1-8.6-1.9-6.3-1.7-12.8-3.1-19.7-4.1-7.2-1-10.4 0-13 6.9a56.6 56.6 0 0 0-3.2 11.7 96.7 96.7 0 0 0 .7 37.9c.9 3.6 2.6 7.4 5 11.3 4.4 7.5 9 14.4 13.6 20.7a121 121 0 0 1 7.3 11.4c3.2 5.7 4 12 2.3 18.8a4 4 0 0 0 .7 3.3l11 12.7c.6.6 1 .6 1.6 0l1.5-2.8 10.6-27.2c3.5-9 11.3-27.4 23.4-55.1a20 20 0 0 1 3-5c2.3-2.7 6-5 9.9-5 1.3 0 3 .6 5.1 1.7l38.9 18.6c2.8 1.4 7.4 2.8 13.5 4.4ZM91.9 102.4l1.3 1.3h.6v-.2c.7-2 .4-5.4-2-6.2-3.3-1-6.8 1.7-9.1 4-2.4 2.3-3.9 6-4.9 9.1 0 .1 0 .3.2.3.3 0 .5-.2.7-.3 3-3.7 7.2-6.4 12.5-8.2.2 0 .5 0 .7.2Zm-.2 2.4c.2-.1.2-.3 0-.5a1 1 0 0 0-1.1-.3c-3.2 1-6.1 2.3-8.5 4.9a105.3 105.3 0 0 0-4.5 5.3l.2.1c.3.3.5.3.7 0a138 138 0 0 1 13.2-9.5ZM76.5 125c3.1-5.3 8.6-9 14.2-11.9a4.2 4.2 0 0 0 2.2-2.7l.8-3c.3-1.2-.1-1.5-1.3-1-5.8 3-17.4 11-17.2 18.3 0 1.6.5 1.7 1.3.3Zm5.4-.5c.6-1.7 1.7-3 3.4-4s3.2-2.1 4.6-3.6c.3-.3.5-.7.4-1.2 0-.3-.3-.6-.7-.5h-.1a33 33 0 0 0-9.8 7.6c-1 1-1.5 2-1.7 3.4a1 1 0 0 0 1.3 1 4.1 4.1 0 0 0 2.6-2.7Zm4.3-3.3-.3.2-2.3 2.5a1 1 0 0 0 0 1c.3 0 .6.1.8 0l3.2-1.6c.2 0 .3-.2.4-.3l.4-1.3a.6.6 0 0 0-.8-.8l-1.4.3Zm28.7 4c-2.4.2-5 .4-7.6.3a49 49 0 0 0-28.3 9c-4.5 3-4.3 3.3.6 1l8.5-3.7c2-.7 7-1.9 15.2-3.5 4.1-.8 8.3 0 12.4-.7 2.8-.5 7.3.1 13.5 1.8.2 0 .4 0 .5-.3v-.2c0-.2-.2-.3-.3-.4-.4-.4-.8-.6-1.3-.7-3-.8-6-1.5-9-2-2.1-.4-3-2-5.2-2.4-6-1-12.7-1-20 0-2.9.4-5.3 1.5-8 2.1a16 16 0 0 0-5.3 2.4c-3.7 2.5-6.8 4-8.4 8.8l.1.6c.2.2.4.3.7.1.2 0 .3 0 .3-.2 1.3-1.8 2.9-3.2 4.6-4.2 8.6-5 18.3-8.6 28-8.5a884.7 884.7 0 0 1 9 .4v.2Zm14.9 5.6-1.4-.5a65.8 65.8 0 0 0-25.1-.8c-5 .9-10.3 1.5-14.9 3.6l-13.3 6.2c-.6.3-1.8 1-3.6 2.4a5 5 0 0 0-1.9 2.5 4 4 0 0 0-.1 2.2c.2 1 .7 1.1 1.4.4a19 19 0 0 1 6.7-4.2c10.5-3.8 21-3.7 31.8-3.5 1.3 0 3-1.2 4.7-1.3 7.1-.6 13.8-2.2 20.2-4.8.4-.2.6-.6.4-1v-.2c-1.1-1.5-2.4-1.8-4-1a1 1 0 0 1-1 0ZM107.4 142c5.4.1 10.8-.5 16.3-1 2.2-.1 4.6-.4 7-.7 4.2-.5 7.6-2 11.5-3.3 1-.4 1.1-.9.1-1.5l-2.9-1.7a3.6 3.6 0 0 0-3.5-.2c-4 1.8-8 3-12.2 3.7-4.9.8-9.5 2-14.4 2.5-4.2.4-8.4.5-12.5.4a42.6 42.6 0 0 0-20.6 4.6 25 25 0 0 0-7.3 5.9c-.3.3-.3.6-.1 1l.1.3c.1.2.3.3.5.2h.1c4.7-4.5 9.6-7 14.7-8a251 251 0 0 1 13.7-1.8c2.9-.3 6-.5 9.5-.4Zm11.8 8.7a107 107 0 0 1 28.2-11.2c.3 0 .5-.4.4-.7 0 0 0-.2-.2-.2-1.5-1.5-5.2-.3-7 .3a648 648 0 0 0-12.7 4.7 24.3 24.3 0 0 0-10.1 6.5l-.7.5a1 1 0 0 0-.7.3c-.3.2-.3.4-.1.7.3.4.6.6 1 .8.4.2.6 0 .7-.3.2-.6.6-1.1 1.2-1.4Zm1.3.7c-1.7 1.4-1.5 1.7.5 1 6.1-2.3 11.7-4.8 18.3-5.5 4.6-.4 9.1-1.2 13.7-2.3a1.1 1.1 0 0 0 .5-1.8c-2-2.3-5-1.8-7.7-1.6-2 .1-4 .6-5.8 1.3-4.8 2-9.8 4-15 6.3-1.6.7-3 1.5-4.5 2.6Zm-.1-6.5 5.6-2 .1-.2v-.2c0-.3-.2-.4-.5-.4l-19.8 1.1c-8.3.4-18 1.1-25.2 3.4a33 33 0 0 0-12.2 8.5c-.6.8-.8 1.7-.6 2.4.2.6.5.7 1 .3a36 36 0 0 1 16.7-6.6l16.9-2.6c4-.7 8.5-.8 12.3-2.3a22 22 0 0 1 3.5-1c.2 0 .4 0 .4.3v.4a13 13 0 0 0-4.6 1.9c-.6.3-.6.6 0 1l.4.3c.6.4 1.2.4 1.8 0a22 22 0 0 0 3.5-2.7c.2-.2.3-.3.3-.5v-.5c0-.3 0-.5.4-.6Zm18 71 3.3-3.7a16 16 0 0 0 3.2-4.6 1.9 1.9 0 0 1 2.7-.9c1.7 1 3.7 1.9 6 2.4.2 0 .4-.1.5-.3v-.2c-1.5-8 .5-16.3 3.7-23.8 1.9-4.4 2.9-8.9 4-13.4 1.2-4.5.7-9.9 0-14.5-.6-3.8-2.4-7.3-5.6-10.4-.6-.7-1.5-1-2.4-.8-4 .9-7.8 1.5-11.4 2-8.3 1-15.8 4-23.6 6.8-3 1.1-1.8 3.8-2 6 0 .2-.1.3-.3.3h-.2l-.2-.1c-.7-4.5.5-8.1-3.6-11.5a1 1 0 0 0-.7-.2 6.2 6.2 0 0 0-5 3.4c-4.2 7-6.3 14-6.3 20.7 0 3.6 1.5 5.6 4.6 6 .3.1.5.3.6.5.2.2.2.4 0 .6-.2.3-.5.5-.9.6a4 4 0 0 0-1.2.4c-.3.1-.5.4-.5.7-.2 4.6-.3 9.8-1.5 14.2-.4 1.8-.3 3.8.5 6 .7 2-.1 3-2.3 3.2-1 0-1.7-.7-1.7-1.5v-.3c.3-2.5 2.3-3.5 2.3-6a64 64 0 0 1 1.2-10.3c.4-2.3.3-4.6.2-7a1 1 0 0 0-.3-.6l-1.6-1.5c-.3-.2-.4-.5-.5-.8a8.5 8.5 0 0 1 0-3.4c0-.4-.2-.7-.5-.8h-.4c-1.2.7-2 1.6-3.2 2.3-7.3 4.6-14.7 8.8-22.1 12.7-3 1.7-9 6.6-8.4 10.5a.5.5 0 0 0 .9.3c3.5-3.6 7.4-7 11.8-10.2.4-.4.9-.5 1.4-.5.7.1.8.4.1.8-1.7 1-3.1 2.2-4.4 3.4l-8.1 7.7a5.6 5.6 0 0 0-2 4 229 229 0 0 1-4 30c-.5 2.1-1.2 4.3-2 6.4-2.5 7.2-5.5 14.2-8 21.3a489 489 0 0 1-7.3 18.9c-.1.2 0 .6.2.7l.7.2c7.8.8 15.4 1.4 22.8 2 2.9.2 5.6.6 8.4 1.2 4 1 8.4 1.4 13 1.2.3 0 .5-.2.5-.5v-.1a93.3 93.3 0 0 1 3.4-56.2c1-2.7 3-4.2 6-4.5a51 51 0 0 1 15 1.1l19.4 4.5c.8.2 1.5 0 1.9-.7.2-.4.2-.7 0-1-1.8-2.3-2.3-5-.2-7.4l4-5.4Zm-35-66.5c-4.8 1-10 1.8-15.4 2.6a40 40 0 0 0-19.8 8.1 3 3 0 0 0-1 2.1c.2 3 .2 6 0 9.1 0 1.3.4 1.5 1.4.7a81 81 0 0 1 17.7-10.9l15.9-6.9a8 8 0 0 0 4.2-3.9.8.8 0 0 0-.7-1l-2.2.1Zm-20.3 20c5.4-3 10.8-6.2 16.3-9.5a8.2 8.2 0 0 0 3.2-3.2c.6-1 .3-1.3-.8-.8-3.6 1.7-7.4 2.6-11.1 4.4-4 2-7.8 3.8-11.2 5.7a70.8 70.8 0 0 0-11.6 9c-1.8 1.6-1.8 3.6-2 5.9-.2 2 .4 2.2 1.8.8 4.5-5 9.5-9 15.4-12.3Zm-12.6 13.8c7.3-5.2 15.4-9.5 23.2-14.2 2.4-1.5 4.6-3.5 6.6-6 .4-.4.6-.8.5-1-.2-.6-.6-.7-1.1-.5-9 4.4-17 9.2-24.2 14.5a33.9 33.9 0 0 0-8 8.1c-1.5 2.2-1.1 2.6 1.1 1.2.3-.2 1.2-1.6 2-2Zm27.8-15.8a142 142 0 0 1-10 6.2c-7.8 4.4-16.7 9.2-22.7 16.5-.5.7-.6 1.4-.4 2.2.1.2.4.3.6.3l.2-.1c6.7-6 15.3-10.5 23.5-15 3-1.7 5.7-4 8.6-6 .6-.4 1-1 1-1.8l.2-1.7c0-.9-.3-1-1-.6Zm3 36c0-.5-.4-1-1-1s-1 .3-1 .8c0 .4.4.8 1 .9s1-.3 1-.8Z"/><path d="M105 169.1c.1.2.3.2.4 0h.1c.8-2 2-3.6 3.5-5.1.1-.2.4-.2.6 0h.2c.2.2.2.3.1.5l-4.1 5c-.2.2-.3.5-.3.8l.3 3c0 .4.2.8.5 1 .7.4 1.3 1 1.7 1.6.2.3.1.7-.2 1h-.5c-3.3-1-4-8.6-3.7-11a18 18 0 0 1 6-11c.1-.2.2-.2.4-.1l.4.1c.3.1.3.3.1.5-.6.8-1.4 1.4-2.2 2-.3.2-.6.4-.8.8-1.6 3-2.5 6.2-2.8 9.9 0 .4 0 .7.3 1Zm44.3 10.8c1.4-1.9 2.9-5.3 5-6.2.4-.1.7 0 .8.4.3.7.1 1.3-.4 1.9a48.6 48.6 0 0 0-3.4 4 1.4 1.4 0 0 0 .7 2.1l1.8.3c.3 0 .5 0 .5.4v.2c0 .4-.1.6-.5.6-1.4.2-2.7 0-4.1-.4-1.1-.4-2 0-2.8.8-.5.4-.9.4-1.4 0-.3-.1-.4-.4-.3-.9 0-.2 0-.4.3-.6 1.2-1 1.3-2.1.4-3.3a6.3 6.3 0 0 1-1-4.4c0-.3.2-.6.4-.7s.6-.2.8 0c.3.1.4.3.5.5.3 1.9 1 3.6 2 5.3a.4.4 0 0 0 .7 0Z"/><path d="m141.7 212.3-3.4 3.6c-3-3.5-4.4-7.1-4.2-11 0-1.6.4-1.7 1-.1 1.2 2.6 2.6 4.2 4.8 5.9l1.8 1.6Z" fill="#f52c28"/><path d="M307.4 230.8c.2.3.5.3.8.1h.1l14.6-20.5c.5-.7 1.2-1.3 2-1.6.4-.2.7-.1 1 .1.3.2.3.5.1.8l-16.2 23.8c-.4.6-.6 1.2-.6 1.9V260c0 .7-.4 1-1 1h-3.5c-.8 0-1.1-.4-1.1-1v-24.4c0-.5-.2-1-.5-1.5l-17.6-24.4c-.5-.6-.3-.9.5-.9l4.3.1c.6 0 1.3.4 1.7.9l15.4 21Zm-59.7 19c.5 1 .9 1 1.3 0l15.5-40c.2-.5.6-.8 1.1-.8h5.2c.3 0 .6.3.6.6v50.6c0 .6-.3.8-.9.8h-4c-.5 0-.7-.3-.7-.8V218c0-1.8-.4-1.9-1-.2l-17.3 43.6c-.4 1-.7 1-1.1 0l-17.5-44.2c0-.2-.2-.2-.3 0a2 2 0 0 0-.3 1.2v41.8c0 .7-.4 1-1 1l-1.2-.1c-.7 0-1-.4-1-1.1v-50.3c0-.4.3-.7.7-.7h4.7c.7 0 1.3.4 1.5 1l15.7 39.8Z"/><rect x="303.4" y="269.4" width="5.7" height="52.3" rx=".7" ry=".7"/><path d="M291.9 319.7v1.5c0 .3-.3.5-.6.5h-23.9a.6.6 0 0 1-.5-.5s0-51 0-51c0-.4.3-.6.6-.6h4.6c.3 0 .5.2.5.5v48.4c0 .3.3.6.6.6h18.1c.3 0 .6.3.6.6Zm39.5-47.4-10.9-.1a.6.6 0 0 1-.6-.6s0-1.5 0-1.5c0-.3.3-.5.6-.5H349c.3 0 .6.2.6.6v1.4c0 .4-.3.6-.6.6l-10.8.1c-.3 0-.6.3-.6.6v48.3c0 .3-.3.6-.6.6h-4.5a.6.6 0 0 1-.6-.6v-48.3c0-.3-.2-.6-.5-.6Zm37.1 0h-10.9a.6.6 0 0 1-.6-.7v-1.4c0-.3.3-.6.6-.6h28.5c.3 0 .6.3.6.6v1.4c0 .4-.3.6-.6.6l-10.8.1c-.3 0-.6.3-.6.6v48.3c0 .3-.2.6-.5.6h-4.5a.6.6 0 0 1-.6-.6v-48.3c0-.3-.3-.6-.6-.6Zm35.3 46.7 18 .1c.3 0 .6.2.6.5l.1 1.5c0 .4-.2.6-.5.7h-24a.6.6 0 0 1-.6-.6v-51c0-.4.3-.6.6-.6h4.5c.3 0 .6.2.6.5v48.4c0 .3.3.6.6.6Zm33.2-46.2v20.5c0 .3.3.5.6.5l21.6.2c.3 0 .5.3.5.5v1.3c-.1.2-.3.4-.6.4l-21.6.3c-.2 0-.5.2-.5.5l.1 21.5c0 .3.2.5.5.5l23.5.2c.3 0 .5.1.5.4l.3 1.6c0 .3-.2.5-.5.6h-29.5a.5.5 0 0 1-.5-.5V270c0-.2.2-.5.5-.5h28.4c.3 0 .5.3.5.6v1.7c0 .3-.1.5-.4.5h-22.9c-.2 0-.4.2-.4.5Z"/><path d="M237.4 290.7c1.8.1 3.5.5 5 1.1.5.3.5.5 0 .7a7 7 0 0 1-3.6.2l-1.5-2Z" fill="#f52c28"/><path d="M237.4 358.5c-.1-1.6-.9-3-2.3-4-.2-.3-.4-.3-.7-.1-.3.2-.4.5-.2.9l1 2.4c.2.3.2.5 0 .7 0 .3-.2.4-.4.4-.3 0-.5.2-.6.6a2 2 0 0 0 0 1.6c.3.3.5.4.9.2.6-.3 1-.9 1-1.5.2-.3.3-.6.6-.7l.7-.5c-.3.5-.2 1 .1 1.5.5 1 1.3 2.1 2.5 1.7a1 1 0 0 1 1.4 1 30 30 0 0 0 1.4 6.2c.3 1 1.1 1.6 2.4 1.7a1 1 0 0 1 .9 1.5l-.8 1.5v1l2 6.9c.7 2 1.9 3.3 3.6 3.8 1 .2 1.3.8 1 1.6 0 .2-.2.4-.5.5-.4.1-.8.3-1.2.7-.1.1-.2.4-.1.6 1 2.9 2.4 5.5 4.1 7.9 1.3 1.9 1.1 4 2.5 5.8.2.3.2.6-.1.8l-.3.1c-1.6.2-3.3.5-5 .2a9.2 9.2 0 0 0-3.2 0c-1.8.4-3.7-.3-5.4-1-.4 0-.7-.5-.8-1-1-5 0-7.2-4.9-10.4-7-4.5-12.5 7.8-13.3 12.3-.2.7-.8 1.2-1.5 1.2l-11.5-.2a.6.6 0 0 1-.6-1c2.5-4 5.1-8 8-11.9.8-1 .7-2-.3-2.8a1.4 1.4 0 0 1 .2-2.3l2.1-1c.3-.1.5-.4.7-.6l3.8-7.8c.2-.4.1-.7-.1-1l-1.8-1.9c-.4-.4-.4-1.2 0-1.6l.3-.2 3-1.7c.3-.2.5-.5.4-1-.2-1.9.1-3.9 1-6 .2-.3.3-.3.5 0 .5 1.3 1.4 1.8 2.6 1.7.2 0 .4-.2.4-.4.2-1.4-.3-2.4-1.6-3.1-.5-.3-1-.2-1.3.3-.3.4-.4.3-.5 0v-1.5a397.5 397.5 0 0 0 3.7-35.2c.2-.3.3-.7.3-1.2l-.1-5.2c0-.5.1-.6.5-.3.8.6 1.5.4 2.2-.5.2-.3.4-.4.7 0 .3.2.3.5.3.9-.6 2.2.4 3.7 0 5.7a11 11 0 0 0 1 6l-.1.8-.8 1c-.1.4-.1.8.2 1l.2.1c.2.2.5.2.7 0 1-1.6 1-3.7-.1-5.2-.6-.7-.5-1.3.2-1.9.4-.2.6-.7.5-1.2 0-.4-.3-.8-.5-1-.2-.3-.3-.6-.3-1l.2-6.5c0-.3-.2-.6-.5-.6h-.1c-.6.1-1 .5-1 1.1 0 .1 0 .2-.2.2-.8-.8-.5-1.2-.8-2-.2-.5-.4-.4-.4 0s-.3 1-.8 1.3c-1 .6-1.3.3-1.1-.7.2-1.4.3-2.9.3-4.3 0-.7-.4-1.1-1-1.3-.7-.1-1.1-.5-1.4-1-.2-.4 0-.7.4-.7l1.8-.2a1.4 1.4 0 0 0 1.2-1.7c-.9-2.9.5-3.5 2-5.4.2-.3.3-.5.3-.8 0-1.5-.8-4.1 0-5.3.3-.7.6-.7.6.1l.2 6.2c0 .3.1.6.3.8l1.7 1.8c.4.4.5.8.5 1.3l-.2 1.6c0 .4.1.7.5.7l2.3.5c.2 0 .3.1.3.3v.4c0 .2-.2.3-.4.3a5.8 5.8 0 0 0-3.3.2c-.4.1-.5.4-.5.8.1 2.3.2 4.6.1 6.8 0 3.2.9 5.9 1 9l1 21.8c.2 2 .5 3.8 1 5.8.3 1.9.6 4 .6 6 0 .2 0 .2-.2.3h-.3v-.2l-.5-1.5a.8.8 0 0 0-.6-.6c-.6 0-1.2.1-1.7.6Zm-1.6-50.3c1.1-.3 1.7-1.4 1.4-2.6-.3-1.3-1.4-2-2.4-1.8-1 .3-1.7 1.5-1.4 2.7.3 1.2 1.4 2 2.4 1.7Zm-1.2 3.6c.2.1.2.3 0 .7l-.2.3c-.5.2-.8.5-1 .9 0 .3 0 .5.3.6l1.9.7a.6.6 0 0 0 .8-.6 11 11 0 0 1 0-4c0-.5-.2-.6-.7-.5l-2.8.6a.5.5 0 0 0-.1.9c.4.2.9.3 1.4.3l.4.1Zm-.4 10c.3-.3.4-.7.2-1h-.2c-.4-.4-.7-.5-1-.2-.7.7-.4 1.8-.5 2.7 0 .4.1.6.5.6l.6-.2c.3-.2.3-.4.1-.6-.3-.5-.2-1 .3-1.4ZM232 329c-.3 1 0 2 1 3h.7c1.2-1.4-1.2-2.6.4-4.1.2-.3.3-.6.2-1a3 3 0 0 0-1.4-1.5.8.8 0 0 0-1.1.3l-.1.5c.1 1 .5 1.9.3 2.8Zm.5 10c-1.2 1.6-1 3.1-.5 5 .1.3 0 .7-.2 1-1.3 1.8-2.4 5.4.8 6.2.3 0 .5 0 .5-.4.4-2 .4-4 .2-6v-.6c.8-1.7 1.6-4.5-.3-5.6-.3 0-.3-.3-.1-.5a3.9 3.9 0 0 0 .5-4.4.5.5 0 0 0-.6-.3l-.2.2c-1.2 1.5-1.2 3.1 0 4.8v.6Zm5.3-3.1c0-.5-.4-1-1-1s-.9.4-.9 1c0 .5.4 1 1 1 .5 0 1-.5 1-1Zm-.6 12.5h1c.3-.2.3-.5.2-.8l-1.6-4.4c0-.3 0-.6.3-.9.3-.3.5-.7.6-1.2l-.1-.9c-.4-.7-.7-1.4-.8-2.2 0-.4-.3-.6-.7-.6-.5 0-.8.2-1.1.7a1 1 0 0 0 0 .9l1 2.1c.2.4.2.7-.2.9-1.8 1.2-.4 4.8.6 6 .3.3.2.4-.1.4a1 1 0 0 0-.7.2c-.4.3-.5.6-.4 1 .2 1 0 1.8-.7 2.5a.6.6 0 0 0 .4 1h1.8c.4 0 .7-.1.9-.4.8-1 0-3-.6-4-.3-.3-.2-.4.2-.3ZM230 357l2.4-.4c.2 0 .4-.3.3-.5v-.1c-.4-2.3-1.5-4-2.4-3.8-.9.2-1.3 2.1-.9 4.4.1.3.3.5.6.4Zm9.4-.7c.5-.3.5-1.2 0-2-.7-.8-1.5-1.2-2-.9-.5.4-.4 1.3.1 2.1.6.8 1.5 1.2 2 .8Zm-9.9 10.6a2 2 0 0 0-1.5-1.1c-.2 0-.4 0-.5.2-.6 1-.6 2.1-.1 3.2v.4c0 .3-.1.5-.4.6-.3.2-.4.5-.3.9.2.5.5.7 1 .6l2.4-.6c.3-.1.5-.4.5-.7 0-.6-.2-1-.9-1.3a.7.7 0 0 1-.5-.7c.1-.5.3-.8.5-.8.4 0 .6.2.5.5 0 .6.2 1 .8 1.3.3.1.5.3.6.6l.3 1c.2.4.5.5.9.4l.4-.1c.2-.1.3-.4.2-.6v-.1a4 4 0 0 1-.7-2.8V359c0-.4-.2-.7-.6-.7l-2.6-.4c-.3 0-.5.1-.5.4-.3 2.3 2 3.4 2.4 5.5.4 1.5 0 2.6-1.3 3.3-.2.2-.4.1-.6-.1Zm8.7 1.8-.6-.2a1 1 0 0 0-1 .3c-.4.5-.6 1-.5 1.8 0 .4.5.7.9.7h.1c.7-.3 1.3-.6 1.8-1a.5.5 0 0 1 .7 0l.9 1.2c.2.4.1.6-.3.6H237a.7.7 0 0 0-.4 1.4c.6.4 1.3.5 2.2.4.4-.1.5 0 .3.4l-.2.5c-.1.3 0 .6.3.8l4.6 2.8a1.2 1.2 0 0 1 .2 1.9c-1 .9-1 1.8-.3 2.8l.2.8c0 .1 0 .2-.2.3-.2.3-.5.3-.8.1-.8-.5-1.4-.4-2 0-.3.3-.3.6 0 .8 2 1.2 4 1.5 6.6.8.3 0 .5-.4.4-.7l-.1-.2a18.7 18.7 0 0 1-3.1-8.3c-.1-.7-.8-1.2-1.6-1.1h-.1c-1.3.3-2.2-.3-2.7-1.8a.5.5 0 0 1 .6-.6c.7.2 1.5.2 2.3 0 .2 0 .3-.2.3-.5a1 1 0 0 0-.7-.8c-1-.4-1.4-1-1-2 .1-.2.2-.6.1-1l-1.2-5.9c0-.3-.3-.5-.6-.6a6 6 0 0 0-1 0 1 1 0 0 1-.8-.4c-.7-.8-1.5-.8-2.4 0-1.1.8-1.4 1.8-.8 2.9.5.7 1.4 1 2.2.6l.5-.5.6-.8c0-.1.1-.2.3-.2h.3c.3 0 .3.2.2.4L238 367v.4l.4 1c0 .4 0 .5-.3.4Zm-3.2.3c.3 0 .5-.8.3-1.6-.1-.8-.5-1.4-.8-1.3-.4 0-.5.7-.4 1.5.2.8.6 1.5 1 1.4Zm-3.8 5.5c.4 0 .7-.6.6-1.3 0-.6-.5-1.1-1-1-.4 0-.7.6-.6 1.2 0 .7.5 1.2 1 1.1Zm-5.3-.4c.1-.2 0-.7-.5-1-.5-.5-1-.6-1.2-.3-.2.3 0 .8.5 1.1.4.4 1 .5 1.1.2Zm4.3 9.8a1.6 1.6 0 0 0 1.5 2l7-.1a1.6 1.6 0 0 0 1.4-2.3l-4.3-8.5a1.6 1.6 0 0 0-2.9.3l-2.7 8.5Zm.5-7.5c0-.6-.3-1-.8-1.2-.7-.3-1.2-.3-1.8-.2-1 .1-1 .5-.2 1.1a3 3 0 0 1 1.3 2.9l.1.4.3.2c.2 0 .4 0 .5-.3.4-.9.6-1.9.6-3ZM241 379c.3-.4-.2-1.4-1.1-2.2-1-.7-2-1-2.3-.7-.3.4.2 1.3 1.1 2.1 1 .8 2 1.1 2.3.7Zm-12.3.2-2.6-2.3a.4.4 0 0 0-.6 0l-.1.1c-.9 1-.8 2.4 0 3.2 1 .8 2.4.7 3.2-.2l.1-.2c.2-.1.2-.4 0-.6Zm12.2 3c.5 0 1-.4 1.2-1.1.1-.7-.2-1.4-.7-1.5-.5 0-1 .4-1.1 1-.2.8.1 1.4.6 1.5Zm-16.8-.9-3 3.3v.3l.2.1c.7.7 2 .5 2.9-.4l.3-.3c.8-1 .8-2.2 0-3h-.4Zm3.2.7-1.7 3.4v.2h.1c1 .5 2 0 2.6-.9v-.2c.5-1 .2-2-.7-2.5h-.3Zm16.6 8.2c.7.8 1.3.9 2 .2.4-.3.8-.4 1.3-.3.3 0 .4.3.4.8l-.2.4c-.5.4-.7.9-.8 1.4 0 .4.2.7.5.9a11 11 0 0 0 3.5 1.5c.3 0 .5-.1.6-.3v-.3a16 16 0 0 0-3.4-6c-.2-.3-.5-.5-.8-.5a29 29 0 0 0-5.7.1 2 2 0 0 0-1.4.8c-.2.2-.4.3-.7 0-.5-.5-1.1-.6-1.8-.3-.5.2-.5.4-.2.8.5.5 1 .7 1.7.6.7-.2 1.2.2 1.4 1 .5 1.5 1 2.9 1.8 4 .3.5.8.8 1.3.8h2.4c.8-.1 1-.5.4-1l-2.8-3.1c-.3-.4-.5-.8-.3-1.3a.5.5 0 0 1 .8-.2Zm-11.8-1.5c0-.2-.2-.5-.5-.5s-.6 0-.7.3c0 .3.2.5.5.6.4 0 .6-.1.7-.4Zm-10.3 3.2a1 1 0 0 1 .4-1.6c.4 0 .8-.3 1.1-.6.6-.5.5-1-.3-1.1-.9-.3-1.6 0-2.1.7a24 24 0 0 0-2.3 3.8 1 1 0 0 0 .4 1.3h.1a9 9 0 0 0 4 .6.7.7 0 0 0 .5-1 5 5 0 0 0-1.8-2Zm6.5-1.9a1.2 1.2 0 0 0-1.5-1.6l-2.7 1.3c-.6.2-.8.7-.7 1.3l.3 1.2c0 .3.2.5.4.6l1 .8c.4.5 1.2.4 1.6-.1l.2-.3 1.5-3.2Zm-12 10c0-.2.1-.3.2-.3l1.6-1.4c.7-.6.8-1.2.3-2l-.2-.3c-.5-.7-1-.7-1.6-.1a24 24 0 0 0-4.6 6.1.9.9 0 0 0 .8 1.3l5.7-.3c1 0 1.6.4 2.4.6.7.2 1.3-.2 1.5-.9l1.3-5c0-.5-.1-.9-.5-1-.8-.5-1.7-.7-2.6-.7-.2 0-.5.3-.4.5a6 6 0 0 0 1.4 3.1c.2.3.2.4-.2.4-.7 0-1.3-.3-1.8-.6a.8.8 0 0 0-.9 0l-1.8 1.4c-.3.2-.5.1-.5-.2v-.7Zm33.5 1.5c.2.3.5.5.8.6l2.1.6a1.4 1.4 0 0 0 1.7-2l-2.1-4.3c-.4-.7-1.3-1-2-.6l-.2.1-1.5 1.2c-.6.4-.8 1.3-.4 1.9l1.6 2.5Zm-3.8-2.3a3 3 0 0 0-1-2.2c-.7-.6-1.8-.5-2.4.2-.2.2-.4.6-.4 1-.2 2.2.9 3.6 3.2 4.2 1 .2 2.3.5 3.1-.2.3-.2.4-.6.1-.9l-.1-.1-2-1.3a1 1 0 0 1-.5-.7Z"/><path d="M184.6 304.6c-2 .7-3.1.7-3.4 0 1.5-.6 2.7-.6 3.4 0Zm24.4.3.4 1.2a10 10 0 0 1-3.4 3.4 2 2 0 0 1-.1-1.7 13 13 0 0 1 3.2-3Z" fill="#f52c28"/><path d="M374.8 334.7c-2.8.4-5.2 2.2-7.2 5.1-4 6.1-3.7 15.1 2 20.3 7.6 7 20.3 7 23.4 18.7 4.1 15.6-8.5 32-25.4 26.2a16.6 16.6 0 0 1-9.2-8.4c-.4-.7-.3-1.4.4-1.9l1.3-1c.7-.6 1.3-.4 1.7.4.8 1.7 2 3.3 3.3 4.8a11.9 11.9 0 0 0 18.7-1.9c2.1-3.2 3-7.2 2.4-11.9-1.6-14.2-18.5-13.1-25.5-23-4.7-6.7-3-18.4 2-24.4 7.4-8.7 22.5-8.9 28.2 2.3.3.6.2 1.1-.3 1.6l-1 1a1 1 0 0 1-1.5-.3c-2.8-5.5-6.8-8.7-13.3-7.6Z"/><rect x="300.8" y="365.3" width="70.9" height="7" rx=".8" ry=".8" transform="rotate(-90 336.2 368.8)"/><path d="M183.4 371.2c-.2 0-.5.3-.5.5v32.1c0 .4-.2.7-.6.7l-5.8-.2a.6.6 0 0 1-.6-.6v-69.4c0-.3.3-.6.7-.6H192c10.5 0 22.3 3 24.5 14.8 2.5 13-4.9 22.8-18.8 22.7h-14.2Zm-.4-33.8v29.8c0 .2.1.5.4.5h11c8.3 0 15-6.2 15-13.8v-3.1c0-7.6-6.7-13.8-15-13.8h-11c-.2 0-.4.2-.5.4Zm106.4 34.2 20.3 32c.4.7.3 1-.5 1h-6.5a2 2 0 0 1-1.7-.9l-22-35.2c-.3-.2-.2-.6 0-.7l.4-.1c9 .2 22.6-.4 23.5-12.6.7-8.6-3.8-16.7-12.8-17.9-4-.5-8.8-.7-14.5-.4-.4 0-.6.3-.6.6v67l-.2.2a34.9 34.9 0 0 1-6.8-.2v-70c0-.5.2-.7.8-.7h18c10.8 0 21.3 4.1 23.2 16 2.2 13.6-7.3 21.6-20 21-.4-.1-.6.2-.7.5l.1.4Z"/></svg>