<svg xmlns="http://www.w3.org/2000/svg" viewBox="0 0 500 500"><rect x="0" y="0" width="500" height="500" fill="#0c1d4c" /><path d="M157.34 224.55h15.09l12.34 34.85 13.27-34.85h9.22l13.06 34.47 12.34-34.47h15.18l-22.39 61.28h-9.77l-13.08-34.91-13.48 34.91h-9.65l-22.13-61.28ZM280 237.16c-4.77 0-8.71 1.67-11.87 5.04-3.16 3.36-4.73 7.66-4.73 12.93s1.61 9.65 4.81 13.06c3.2 3.41 7.14 5.12 11.83 5.12s8.84-1.67 12.04-5.04c3.18-3.36 4.77-7.77 4.77-13.2s-1.59-9.65-4.77-12.95c-3.18-3.3-7.21-4.95-12.08-4.95Zm16.19-12.61h15.41v61.28h-15.41v-6.47a29.9 29.9 0 0 1-9.05 6.16 25.51 25.51 0 0 1-9.84 1.88c-7.93 0-14.78-3.07-20.56-9.2-5.79-6.14-8.67-13.77-8.67-22.89s2.8-17.22 8.39-23.25c5.6-6.05 12.4-9.06 20.39-9.06 3.69 0 7.14.7 10.37 2.09a28.93 28.93 0 0 1 8.97 6.24v-6.77Zm24.22 0h13.21v7.72a16.29 16.29 0 0 1 5.7-6.92 13.8 13.8 0 0 1 7.78-2.37c1.99 0 4.07.53 6.25 1.57l-4.79 13.22c-1.8-.91-3.29-1.35-4.45-1.35-2.37 0-4.37 1.46-6.02 4.38-1.63 2.92-2.46 8.68-2.46 17.22l.06 2.98v24.78h-15.28V224.5v.04Zm40.73 0h13.21v7.72a16.29 16.29 0 0 1 5.7-6.92 13.83 13.83 0 0 1 7.78-2.37c1.99 0 4.07.53 6.25 1.57l-4.79 13.22c-1.8-.91-3.29-1.35-4.45-1.35-2.38 0-4.36 1.46-6.02 4.38-1.63 2.92-2.46 8.68-2.46 17.22l.06 2.98v24.78h-15.28V224.5v.04Zm38.8 0h15.73L431.61 263l17.6-38.45H465l-38.45 83.68h-15.9l12.61-26.98-23.32-56.71Z" fill="#fff"/><path d="M148.59 276.24a59.64 59.64 0 0 0-14.27-71.12 59.6 59.6 0 0 0-43.37-14.71 59.44 59.44 0 0 0-41.08 20.16 59.21 59.21 0 0 0-14.73 43.27 59.25 59.25 0 0 0 20.2 41.01 59.86 59.86 0 0 0 72.5 4.93l9.56 8.38.68-.47a59.45 59.45 0 0 0 11.26-9.94 60.34 60.34 0 0 0 8.44-12.44l.36-.74-9.56-8.38.02.04Zm-79.48-48.77a34.27 34.27 0 0 1 48.27-3.13 34.23 34.23 0 0 1 10.18 35.48l-.19.66 9.54 8.36a33.93 33.93 0 0 1-17.96 20.4l-9.54-8.36-.61.28a34.38 34.38 0 0 1-36.57-5.5 34.13 34.13 0 0 1-3.14-48.18h.02Z" fill="#fee539"/></svg>